<svg xmlns="http://www.w3.org/2000/svg" viewBox="0 0 1440 320">
    <style type="text/css">
        path{fill:url(#MyGradient)}
    </style>
    <defs>
        <linearGradient id="MyGradient">
            <stop offset="5%" stop-color="#cbd5e1" />
<!--            <stop offset="60%" stop-color="#f9a8d4" />-->
            <stop offset="95%" stop-color="#e5e7eb" />
        </linearGradient>
    </defs>
    <path fill-opacity="1" d="M0,96L48,85.3C96,75,192,53,288,90.7C384,128,480,224,576,229.3C672,235,768,149,864,112C960,75,1056,85,1152,106.7C1248,128,1344,160,1392,176L1440,192L1440,320L1392,320C1344,320,1248,320,1152,320C1056,320,960,320,864,320C768,320,672,320,576,320C480,320,384,320,288,320C192,320,96,320,48,320L0,320Z"></path>
</svg>
